####
#
# OBJ File Generated by Meshlab
#
####
# Object output.obj
#
# Vertices: 150
# Faces: 130
#
####
mtllib ./output.obj.mtl

vn -0.0195414595459079 -0.9997984956137197 -0.0045934221837830
v 0.9310135800000000 1.3438768400000001 0.3207609400000000
vn 0.1404772579768594 -0.9892417918092260 0.0408266742384789
v 0.8328362700000000 1.3458565499999999 0.3075282900000000
vn 0.1005269306573711 -0.9944972233421262 0.0294891332088520
v 0.8405299200000000 1.3458306799999999 0.2804285900000000
vn 0.3103307604181381 -0.9464525025344264 0.0890083118850242
v 0.7917628300000000 1.3334324399999999 0.2583948700000000
vn 0.5474391274402609 -0.8221377049951234 0.1562049799871862
v 0.6579260800000000 1.2518471499999999 0.2167677900000000
vn 0.3994688371551569 -0.9095959335542005 0.1142798573833947
v 0.7797601199999999 1.3334728499999999 0.3006721700000000
vn 0.6080589265824035 -0.7747303679501555 0.1733701207799999
v 0.6439747800000000 1.2518941200000000 0.2659091700000000
vn 0.7490582587476495 -0.6272413131606562 0.2132605450298643
v 0.4857682900000000 1.0964471099999999 0.2277484200000000
vn 0.8336305707941740 -0.4988199014097570 0.2371471640035783
v 0.2539438900000000 0.7578778300000000 0.1719472400000000
vn 0.7082133858901578 -0.6765695795187952 0.2017111898625341
v 0.5031906400000000 1.0963883400000001 0.1663812400000000
vn 0.8109190185611295 -0.5377460330163485 0.2307369699702121
v 0.2764578800000000 0.7578018900000000 0.0926453200000000
vn 0.8780356165213374 -0.4083133356061248 0.2496671305682726
v 0.1020806300000000 0.4019037500000000 0.0337319600000000
vn 0.9166299635742117 -0.3031782864102435 0.2605233895973408
v -0.0120948700000000 0.0256105500000000 -0.0024538400000000
vn 0.8987869070084573 -0.3562267518139597 0.2555085068686486
v 0.0744445500000000 0.4019969400000000 0.1310756500000000
vn 0.9166299778365936 -0.3031782761307977 0.2605233513788037
v -0.0419017700000000 0.0257110500000000 0.1025362400000000
vn -0.0343687673567811 -0.9923120855562785 -0.1188928622303482
v 1.1044696599999999 1.4990413199999999 0.6056836799999999
vn 0.1588290627206518 -0.9868783450432014 -0.0290596097714881
v 1.0255821899999999 1.5050225300000000 0.5785671500000000
vn 0.1105918903046977 -0.9925080567253951 -0.0519344888683195
v 1.0321587299999999 1.5065001200000001 0.5643336799999999
vn 0.3365989520578086 -0.9398624976086083 0.0579623245090614
v 0.9889272500000000 1.4947652800000000 0.5382603400000000
vn 0.5408239805725397 -0.8249428211375407 0.1642521351194825
v 0.8549745100000000 1.4055869599999999 0.4649026100000000
vn 0.4180262657815346 -0.9029788143770761 0.0994147972030118
v 0.9786671400000000 1.4924602499999999 0.5604656900000000
vn 0.5850724700870945 -0.7887822045893476 0.1884485034946013
v 0.8430486900000000 1.4029074900000000 0.4907131200000000
vn 0.6833093121347273 -0.6880456753528588 0.2442980404714585
v 0.6658680400000000 1.2275921100000000 0.3945774700000000
vn 0.7416112143682255 -0.6098982540010542 0.2793509020743469
v 0.3711313600000000 0.8407729300000000 0.2240039400000000
vn 0.6557410056330736 -0.7196476782077813 0.2282782354528677
v 0.6807608600000000 1.2309382000000000 0.3623456400000000
vn 0.7258376541100722 -0.6327951350664989 0.2696850327922533
v 0.3903766300000000 0.8450967100000000 0.1823522700000000
vn 0.7740282404357638 -0.5577021947556696 0.2997474686675844
v 0.1368122100000000 0.4365074900000000 0.0169757400000000
vn 0.8057237693848590 -0.4980294188288578 0.3205868141849330
v -0.0746407500000000 0.0008254200000000 -0.1284133200000000
vn 0.7903800848785121 -0.5281773275313419 0.3103675758021215
v 0.1131884600000000 0.4311999100000000 0.0681034900000000
vn 0.8057237976264413 -0.4980294070789469 0.3205867614593875
v -0.1001201400000000 -0.0048990600000000 -0.0732694600000000
vn -0.1102068159439770 0.9334085649535535 0.3414716805107536
v -0.1471490300000000 1.4708038600000000 -0.7900005600000000
vn -0.1236971181020832 0.8300910623047200 0.5437350929037601
v -0.1773996700000000 1.4530637300000000 -0.7512712499999999
vn -0.1208834259857124 0.8603858222312765 0.4950994185265895
v -0.1233426600000000 1.4573299900000001 -0.7454866200000000
vn -0.1300933042494110 0.7100125135800505 0.6920678888297077
v -0.1092231000000000 1.4375870200000000 -0.7189089100000000
vn -0.1317151169908097 0.5582840217924943 0.8191276328920268
v -0.1024580600000000 1.3373268800000000 -0.6430751099999999
vn -0.1313525811714100 0.6529783580382267 0.7458992983997973
v -0.1935556500000000 1.4309312100000000 -0.7279331700000000
vn -0.1313958914401942 0.5232191543458935 0.8420076224347406
v -0.2004827000000000 1.3295904400000000 -0.6535645700000000
vn -0.1297439694149107 0.4374415588157301 0.8898378419809571
v -0.2095132200000000 1.1551147700000000 -0.5564566900000000
vn -0.1279883550923368 0.3790838934937067 0.9164684297096163
v -0.2168267100000000 0.7964024500000000 -0.3936619200000000
vn -0.1303478750129257 0.4625654138219017 0.8769507793573066
v -0.0871011000000000 1.1647758500000001 -0.5433576100000000
vn -0.1285336071166402 0.3956031502312354 0.9093829003058655
v -0.0586393900000000 0.8088870600000000 -0.3767345500000000
vn -0.1266520061052381 0.3425515544881361 0.9309230375639439
v -0.0274136100000000 0.4465793400000000 -0.2301924500000000
vn -0.1249796156780824 0.3022916923971047 0.9449866815848005
v -0.0034245400000000 0.0758793900000000 -0.1084366000000000
vn -0.1258443345494470 0.3224904424410285 0.9381700901201213
v -0.2215897100000000 0.4312543600000000 -0.2509709900000000
vn -0.1249795990931002 0.3022917022005944 0.9449866806422169
v -0.2128532500000000 0.0593505800000000 -0.1308472800000000
vn -0.1073203024757629 0.8421159593986267 -0.5285102303670585
v 0.0079409200000000 2.0398220999999999 0.5197653800000001
vn -0.1363640504392674 0.7033608473186850 -0.6976305356038670
v 0.0041311700000000 2.0111193699999999 0.4748047300000000
vn -0.1296374083671631 0.7417840391851416 -0.6579898035395547
v -0.0036489100000000 2.0110185100000000 0.4762238600000000
vn -0.1551120576592449 0.5651847198429556 -0.8102508759790111
v -0.0100180800000000 1.9786927700000001 0.4513568600000000
vn -0.1686339634272769 0.4124641171432183 -0.8952295451157057
v -0.0222208200000000 1.8323423900000000 0.3796589700000000
vn -0.1610946742018321 0.5061612929393883 -0.8472598488502405
v 0.0021192700000000 1.9788496499999999 0.4491428400000000
vn -0.1707819540814075 0.3793822448780664 -0.9093418699429907
v -0.0081128500000000 1.8325248999999999 0.3770855400000000
vn -0.1749206489707205 0.3004564644689159 -0.9376186215740924
v -0.0195314000000000 1.5869205000000000 0.2871208200000000
vn -0.1769422613455812 0.2481705856631665 -0.9524194436074439
v -0.0365405400000000 1.0888671900000000 0.1439556800000000
vn -0.1738623541788293 0.3232535812922659 -0.9302037432633345
v -0.0371493100000000 1.5866924499999999 0.2903345200000000
vn -0.1764301610060280 0.2628671457574708 -0.9485637890878544
v -0.0593073700000000 1.0885724999999999 0.1481085700000000
vn -0.1779199198065019 0.2158803397996224 -0.9600730081738824
v -0.0772495600000000 0.5861775299999999 0.0287785900000000
vn -0.1787589818165634 0.1805909203014071 -0.9671774118147076
v -0.0887134400000000 0.0787648800000000 -0.0638464400000000
vn -0.1783682223329525 0.1982648974320520 -0.9637820332980068
v -0.0493031300000000 0.5865391500000000 0.0236809100000000
vn -0.1787592977432449 0.1805909343057699 -0.9671773508084808
v -0.0585718200000000 0.0791549200000000 -0.0693445600000000
vn -0.0144319077249634 -0.9788503911936723 -0.2040677135154232
v 0.2093190800000000 2.2390689799999999 -1.2753458000000000
vn 0.0228744876229840 -0.9130407041958247 -0.4072265098168076
v 0.2065523900000000 2.2188067400000002 -1.1779583700000000
vn 0.0135239761904564 -0.9337861487959344 -0.3575759085632826
v 0.1783041100000000 2.2202098399999999 -1.1826908599999999
vn 0.0570103350788649 -0.8119118765607228 -0.5809896095403438
v 0.1600262500000000 2.1895313299999999 -1.1313457499999999
vn 0.0958923736227194 -0.6402512065429690 -0.7621568376661547
v 0.1244725300000000 2.0330758100000001 -0.9875164000000000
vn 0.0725104563720920 -0.7516085836571554 -0.6556117530136231
v 0.2040954200000000 2.1873426399999998 -1.1239626400000000
vn 0.1042820099089411 -0.5931811577923065 -0.7982865252837044
v 0.1756966100000000 2.0305318799999998 -0.9789344100000000
vn 0.1230320103862673 -0.4704090404950758 -0.8738297654811351
v 0.1393119100000000 1.7557669899999999 -0.8040188600000000
vn 0.1343163298059236 -0.3811413530414460 -0.9147078181305778
v 0.0757191800000000 1.1842216299999999 -0.5363806500000000
vn 0.1177537953576586 -0.5077854743588699 -0.8533978882731104
v 0.0753438200000000 1.7589440300000001 -0.8147355300000000
vn 0.1312463848214868 -0.4068590014333886 -0.9040133513526867
v -0.0069437000000000 1.1883271900000001 -0.5502296700000000
vn 0.1406865404764105 -0.3236022390820667 -0.9356756319312010
v -0.0814212400000000 0.6038342100000000 -0.3367976800000000
vn 0.1470288014490082 -0.2594219609253944 -0.9545065624363676
v -0.1412117500000000 0.0027177300000000 -0.1826323000000000
vn 0.1439405416467742 -0.2916585701430099 -0.9456301596991121
v 0.0200481200000000 0.5987945800000000 -0.3197980200000000
vn 0.1470290090489849 -0.2594220068572753 -0.9545065179747163
v -0.0317719100000000 -0.0027177900000000 -0.1642972500000000
vn 0.1439651905936902 -0.9630007597466782 -0.2278235295676084
v -1.7481323499999999 1.6179064500000000 0.2830766400000000
vn -0.0210303158839916 -0.9688229589418139 -0.2468598793669155
v -1.6142264600000000 1.6351391099999999 0.2948520800000000
vn 0.0204878171056440 -0.9698819820729372 -0.2427121550324917
v -1.6155808000000000 1.6319283200000001 0.3075681300000000
vn -0.2002891776144558 -0.9446517908772553 -0.2598407961096936
v -1.5417912000000000 1.6216052800000000 0.3166480700000000
vn -0.4589765071096079 -0.8485874181519608 -0.2631348697448772
v -1.3374530099999999 1.5314900899999999 0.3173872500000000
vn -0.2962476055831546 -0.9180874108393002 -0.2633493160132326
v -1.5396786899999999 1.6266139700000000 0.2968100900000000
vn -0.5271711603920430 -0.8088857540750075 -0.2603735864203841
v -1.3349972999999999 1.5373121500000000 0.2943285400000000
vn -0.6905576615123741 -0.6804003871418782 -0.2453271882685318
v -1.0871660700000001 1.3532435899999999 0.2711624800000000
vn -0.7935921874725580 -0.5645034031023977 -0.2270404102100163
v -0.7054950000000000 0.9364382600000000 0.2020470800000000
vn -0.6423809192225105 -0.7240418160340446 -0.2512174421750315
v -1.0902324900000000 1.3459732499999999 0.2999580200000000
vn -0.7653666788668129 -0.5999445078450784 -0.2329816181309412
v -0.7094577600000000 0.9270430800000000 0.2392581300000000
vn -0.8505543760550814 -0.4812268347487028 -0.2120801426142865
v -0.3998974600000000 0.4779010700000000 0.1633734400000000
vn -0.9033101737611459 -0.3831532940238143 -0.1929359563645643
v -0.1739929600000000 -0.0062193600000000 0.0671264800000000
vn -0.8783774495724055 -0.4328030786697745 -0.2028165456185502
v -0.3950332100000000 0.4894337400000000 0.1176965700000000
vn -0.9033101631276934 -0.3831532817066703 -0.1929360306102231
v -0.1687466200000000 0.0062192300000000 0.0178616600000000
vn -0.0418427455543798 0.9863160206522195 -0.1594675266292235
v -0.1924281400000000 1.7361401299999999 1.3445231900000001
vn -0.0381293419469328 0.9269757311912765 -0.3731784386390672
v -0.1881054600000000 1.7272465200000000 1.2883814600000001
vn -0.0392519274772507 0.9463514314144645 -0.3207464020828836
v -0.1953648000000000 1.7269322899999999 1.2883427100000000
vn -0.0337038039331079 0.8447057134888776 -0.5341688040307903
v -0.1962975900000000 1.7062052500000000 1.2498534900000000
vn -0.0282757160058919 0.7366912342186184 -0.6756378536685188
v -0.1916729200000000 1.5944036200000000 1.1183873400000000
vn -0.0316605148755782 0.8047340568316780 -0.5927906119137206
v -0.1849725200000000 1.7066954400000001 1.2499141700000000
vn -0.0270426922127427 0.7114187465411124 -0.7022478621311420
v -0.1785091800000000 1.5949736800000001 1.1184579100000001
vn -0.0240170042315162 0.6488165615970493 -0.7605657452877600
v -0.1671581000000000 1.3941705200000001 0.9290201700000000
vn -0.0219601284269719 0.6056613545819353 -0.7954194342140795
v -0.1445446300000000 0.9701910600000000 0.5842204100000000
vn -0.0249019949485089 0.6672251518561113 -0.7444397137298450
v -0.1835969100000000 1.3934587199999999 0.9289320700000000
vn -0.0225427738344773 0.6179216929662558 -0.7859164107648878
v -0.1657876700000000 0.9692712999999999 0.5841065600000001
vn -0.0206709738174510 0.5783798515743597 -0.8155056456789614
v -0.1475020900000000 0.5311104100000000 0.2606020600000000
vn -0.0192451217400731 0.5480368412516162 -0.8362327701783521
v -0.1272459900000000 0.0765440600000000 -0.0377705500000000
vn -0.0199610857761784 0.5633010128185759 -0.8260106076874575
v -0.1214260800000000 0.5322395000000000 0.2607418900000000
vn -0.0192444888717557 0.5480368422718197 -0.8362327840743853
v -0.0991217100000000 0.0777618000000000 -0.0376197200000000
vn 0.5196826474684455 0.8187075455879387 0.2442291971029690
v -0.6438138500000000 2.2062249199999999 -0.3076706800000000
vn 0.6668112928915125 0.6757884349608707 0.3141220954429767
v -0.6034309900000000 2.1730535000000000 -0.2824017100000000
vn 0.6325111724593675 0.7150085112295701 0.2978127693423337
v -0.5987160200000000 2.1730337099999999 -0.2923681100000000
vn 0.7625618149994445 0.5376951757169021 0.3596990079434784
v -0.5730238000000000 2.1363253599999998 -0.2835562800000000
vn 0.8326616417056727 0.3899989664809394 0.3931607770058113
v -0.5031930800000000 1.9710190299999999 -0.2517375100000000
vn 0.7932203915211976 0.4802961779421819 0.3743220430713237
v -0.5803796100000000 2.1363561199999999 -0.2680081400000000
vn 0.8441380060127275 0.3584825379540696 0.3986493406326737
v -0.5117431900000000 1.9710547899999999 -0.2336650200000000
vn 0.8670341247570741 0.2836571293051318 0.4096223376490916
v -0.4265797700000000 1.6943200800000000 -0.1900761300000000
vn 0.8789532716645372 0.2343432737756889 0.4153605376853930
v -0.2910893300000000 1.1340597900000000 -0.1208321500000000
vn 0.8610476388386974 0.3052060190082492 0.4067508446351902
v -0.4159027900000000 1.6942755000000000 -0.2126449000000000
vn 0.8758534765005672 0.2481857310755750 0.4138653532156959
v -0.2772918600000000 1.1340019699999999 -0.1499967000000000
vn 0.8850993693037633 0.2039604666617509 0.4183290983151914
v -0.1608198600000000 0.5694820300000000 -0.0978379400000000
vn 0.8907932268552824 0.1707949789501059 0.4210896604693428
v -0.0713513600000000 -0.0000382000000000 -0.0561050700000000
vn 0.8880730913432341 0.1874020411599208 0.4197697695179669
v -0.1777564000000000 0.5695528399999999 -0.0620382500000000
vn 0.8907930355553393 0.1707949475614920 0.4210900778854463
v -0.0896183100000000 0.0000381900000000 -0.0174933200000000
vn 0.1331589586052431 -0.9763606305622168 -0.1702604206247529
v -0.9630322500000000 1.2047706800000000 1.1831629299999999
vn 0.0712132591373198 -0.9938048157841156 -0.0853267827082506
v -0.8826814900000000 1.2422250500000001 1.0312218700000000
vn 0.0868252244375875 -0.9904909476183186 -0.1067195534451294
v -0.8430496500000000 1.2425769600000001 1.0601995000000000
vn -0.0058833521643995 -0.9997788722210484 0.0201889283449682
v -0.7789350700000000 1.2478858200000000 0.9957422000000000
vn -0.1443622943842707 -0.9671608852302372 0.2091873563119260
v -0.6373885900000000 1.2069599600000001 0.8131849799999999
vn -0.0519469958083159 -0.9951835477912419 0.0831337225927472
v -0.8407634500000000 1.2473367500000001 0.9505350600000000
vn -0.1906571929882774 -0.9431598943221630 0.2722117714281236
v -0.7092553400000000 1.2063217200000000 0.7606382400000000
vn -0.3251729001632490 -0.8291082271757845 0.4547990024492681
v -0.5645016400000000 1.0904692400000000 0.5453058500000000
vn -0.4288590486233222 -0.6799245174881037 0.5947962398439220
v -0.3611041300000000 0.7963221100000000 0.2431708300000000
vn -0.2811635830687359 -0.8745256638158251 0.3951606039111699
v -0.4747554700000000 1.0912661600000000 0.6109255600000000
vn -0.3985873630450515 -0.7308880626074858 0.5540133156871486
v -0.2451292400000000 0.7973520200000001 0.3279681500000000
vn -0.4908322097584818 -0.5472442487223613 0.6779435626244298
v -0.0722765900000000 0.4643480800000000 0.1232973300000000
vn -0.5450411192077229 -0.3747629731746301 0.7499885947866836
v 0.0259810200000000 0.0852125600000000 0.0052535100000000
vn -0.5205358095557155 -0.4627907404838520 0.7175424736505734
v -0.2146365800000000 0.4630839200000000 0.0192080000000000
vn -0.5450411124100438 -0.3747629691036208 0.7499886017610271
v -0.1275614200000000 0.0838491100000000 -0.1070120800000000
vn 0.0359913564247215 -0.9931950644608407 0.1107618444832665
v -1.2198936899999999 1.5669401900000000 -0.7808762800000000
vn -0.1061979340698971 -0.9938966607770058 0.0298567663286430
v -1.1007620100000000 1.5753058200000001 -0.7445732400000000
vn -0.0706498787460231 -0.9962315611620818 0.0503117399593134
v -1.1270650600000001 1.5795038900000000 -0.6983823800000000
vn -0.2589120024698874 -0.9640468632635891 -0.0598182280635893
v -1.0771399699999999 1.5700502400000000 -0.6518573800000000
vn -0.4757517877996499 -0.8581620398383719 -0.1929200606102988
v -0.9285066100000000 1.4834169100000001 -0.5515505100000000
vn -0.3398713180603528 -0.9341765848706751 -0.1086351482683239
v -1.0361053899999999 1.5635010000000000 -0.7239183200000000
vn -0.5321213807630043 -0.8151305940884068 -0.2289300127024741
v -0.8808097800000000 1.4758044500000000 -0.6353111299999999
vn -0.6646715549463430 -0.6765503197138639 -0.3170037680222099
v -0.6981332300000000 1.3001604099999999 -0.5292077100000000
vn -0.7452334066647385 -0.5519019626350864 -0.3742076872946471
v -0.4297833700000000 0.9087216299999999 -0.3611890100000000
vn -0.6260203088359140 -0.7235888376344870 -0.2907193955960952
v -0.7576965100000000 1.3096669900000000 -0.4246085300000000
vn -0.7235025413724522 -0.5900129524096326 -0.3583696256889966
v -0.5067541600000000 0.9210065000000000 -0.2260203700000000
vn -0.7878836986303489 -0.4624921823338273 -0.4066205340519036
v -0.3145710200000000 0.5069201000000000 -0.0584598000000000
vn -0.8251601013003500 -0.3574920588713787 -0.4373902548821804
v -0.1865232400000000 0.0620567900000000 0.0635712100000000
vn -0.8079035405394811 -0.4105906722802550 -0.4227377071189881
v -0.2200888700000000 0.4918402700000000 -0.2243802500000000
vn -0.8251600793269042 -0.3574920757088837 -0.4373902825744658
v -0.0846194600000000 0.0457924700000000 -0.1153823900000000
# 150 vertices, 0 vertices normals


usemtl material_0
vt 0.0249788798391819 0.0000000000000000
vt 0.0314264297485352 0.0246386490762234
vt 0.0185313895344734 0.0246386490762234
f 1/1/1 2/2/2 3/3/3
vt 0.0350374989211559 0.0442237295210361
vt 0.0149203902110457 0.0442237295210361
f 2/2/2 6/4/6 4/5/4
f 2/2/2 4/5/4 3/3/3
vt 0.0366705916821957 0.1228406429290771
vt 0.0132873002439737 0.1228406429290771
f 6/4/6 7/6/7 5/7/5
f 6/4/6 5/7/5 4/5/4
vt 0.0395794101059437 0.2492874264717102
vt 0.0103786401450634 0.2492874264717102
f 7/6/7 8/8/8 10/9/10
f 7/6/7 10/9/10 5/7/5
vt 0.0438465699553490 0.5001146793365479
vt 0.0061117899604142 0.5001146197319031
f 8/8/8 9/10/9 11/11/11
f 8/8/8 11/11/11 10/9/10
vt 0.0481390208005905 0.7502092123031616
vt 0.0018192899879068 0.7502092123031616
f 9/10/9 14/12/14 12/13/12
f 9/10/9 12/13/12 11/11/11
vt 0.0499581694602966 1.0000000000000000
vt 0.0000000000000000 1.0000000000000000
f 14/12/14 15/14/15 13/15/13
f 14/12/14 13/15/13 12/13/12
f 16/1/16 17/2/17 18/3/18
f 17/2/17 21/4/21 19/5/19
f 17/2/17 19/5/19 18/3/18
f 21/4/21 22/6/22 20/7/20
f 21/4/21 20/7/20 19/5/19
f 22/6/22 23/8/23 25/9/25
f 22/6/22 25/9/25 20/7/20
f 23/8/23 24/10/24 26/11/26
f 23/8/23 26/11/26 25/9/25
f 24/10/24 29/12/29 27/13/27
f 24/10/24 27/13/27 26/11/26
f 29/12/29 30/14/30 28/15/28
f 29/12/29 28/15/28 27/13/27
f 31/1/31 32/2/32 33/3/33
f 32/2/32 36/4/36 34/5/34
f 32/2/32 34/5/34 33/3/33
f 36/4/36 37/6/37 35/7/35
f 36/4/36 35/7/35 34/5/34
f 37/6/37 38/8/38 40/9/40
f 37/6/37 40/9/40 35/7/35
f 38/8/38 39/10/39 41/11/41
f 38/8/38 41/11/41 40/9/40
f 39/10/39 44/12/44 42/13/42
f 39/10/39 42/13/42 41/11/41
f 44/12/44 45/14/45 43/15/43
f 44/12/44 43/15/43 42/13/42
f 46/1/46 47/2/47 48/3/48
f 47/2/47 51/4/51 49/5/49
f 47/2/47 49/5/49 48/3/48
f 51/4/51 52/6/52 50/7/50
f 51/4/51 50/7/50 49/5/49
f 52/6/52 53/8/53 55/9/55
f 52/6/52 55/9/55 50/7/50
f 53/8/53 54/10/54 56/11/56
f 53/8/53 56/11/56 55/9/55
f 54/10/54 59/12/59 57/13/57
f 54/10/54 57/13/57 56/11/56
f 59/12/59 60/14/60 58/15/58
f 59/12/59 58/15/58 57/13/57
f 61/1/61 62/2/62 63/3/63
f 62/2/62 66/4/66 64/5/64
f 62/2/62 64/5/64 63/3/63
f 66/4/66 67/6/67 65/7/65
f 66/4/66 65/7/65 64/5/64
f 67/6/67 68/8/68 70/9/70
f 67/6/67 70/9/70 65/7/65
f 68/8/68 69/10/69 71/11/71
f 68/8/68 71/11/71 70/9/70
f 69/10/69 74/12/74 72/13/72
f 69/10/69 72/13/72 71/11/71
f 74/12/74 75/14/75 73/15/73
f 74/12/74 73/15/73 72/13/72
f 76/1/76 77/2/77 78/3/78
f 77/2/77 81/4/81 79/5/79
f 77/2/77 79/5/79 78/3/78
f 81/4/81 82/6/82 80/7/80
f 81/4/81 80/7/80 79/5/79
f 82/6/82 83/8/83 85/9/85
f 82/6/82 85/9/85 80/7/80
f 83/8/83 84/10/84 86/11/86
f 83/8/83 86/11/86 85/9/85
f 84/10/84 89/12/89 87/13/87
f 84/10/84 87/13/87 86/11/86
f 89/12/89 90/14/90 88/15/88
f 89/12/89 88/15/88 87/13/87
f 91/1/91 92/2/92 93/3/93
f 92/2/92 96/4/96 94/5/94
f 92/2/92 94/5/94 93/3/93
f 96/4/96 97/6/97 95/7/95
f 96/4/96 95/7/95 94/5/94
f 97/6/97 98/8/98 100/9/100
f 97/6/97 100/9/100 95/7/95
f 98/8/98 99/10/99 101/11/101
f 98/8/98 101/11/101 100/9/100
f 99/10/99 104/12/104 102/13/102
f 99/10/99 102/13/102 101/11/101
f 104/12/104 105/14/105 103/15/103
f 104/12/104 103/15/103 102/13/102
f 106/1/106 107/2/107 108/3/108
f 107/2/107 111/4/111 109/5/109
f 107/2/107 109/5/109 108/3/108
f 111/4/111 112/6/112 110/7/110
f 111/4/111 110/7/110 109/5/109
f 112/6/112 113/8/113 115/9/115
f 112/6/112 115/9/115 110/7/110
f 113/8/113 114/10/114 116/11/116
f 113/8/113 116/11/116 115/9/115
f 114/10/114 119/12/119 117/13/117
f 114/10/114 117/13/117 116/11/116
f 119/12/119 120/14/120 118/15/118
f 119/12/119 118/15/118 117/13/117
f 121/1/121 122/2/122 123/3/123
f 122/2/122 126/4/126 124/5/124
f 122/2/122 124/5/124 123/3/123
f 126/4/126 127/6/127 125/7/125
f 126/4/126 125/7/125 124/5/124
f 127/6/127 128/8/128 130/9/130
f 127/6/127 130/9/130 125/7/125
f 128/8/128 129/10/129 131/11/131
f 128/8/128 131/11/131 130/9/130
f 129/10/129 134/12/134 132/13/132
f 129/10/129 132/13/132 131/11/131
f 134/12/134 135/14/135 133/15/133
f 134/12/134 133/15/133 132/13/132
f 136/1/136 137/2/137 138/3/138
f 137/2/137 141/4/141 139/5/139
f 137/2/137 139/5/139 138/3/138
f 141/4/141 142/6/142 140/7/140
f 141/4/141 140/7/140 139/5/139
f 142/6/142 143/8/143 145/9/145
f 142/6/142 145/9/145 140/7/140
f 143/8/143 144/10/144 146/11/146
f 143/8/143 146/11/146 145/9/145
f 144/10/144 149/12/149 147/13/147
f 144/10/144 147/13/147 146/11/146
f 149/12/149 150/14/150 148/15/148
f 149/12/149 148/15/148 147/13/147
# 130 faces, 15 coords texture

# End of File
